<?xml version="1.0" encoding="UTF-8" standalone="no"?>
<!-- Created with Inkscape (http://www.inkscape.org/) -->

<svg
   xmlns:dc="http://purl.org/dc/elements/1.1/"
   xmlns:cc="http://creativecommons.org/ns#"
   xmlns:rdf="http://www.w3.org/1999/02/22-rdf-syntax-ns#"
   xmlns:svg="http://www.w3.org/2000/svg"
   xmlns="http://www.w3.org/2000/svg"
   xmlns:sodipodi="http://sodipodi.sourceforge.net/DTD/sodipodi-0.dtd"
   xmlns:inkscape="http://www.inkscape.org/namespaces/inkscape"
   width="512"
   height="128"
   id="svg2"
   version="1.1"
   inkscape:version="0.48.4 r9939"
   sodipodi:docname="logo.svg"
   inkscape:export-filename="C:\Users\nledon\Desktop\PQMail\www\img\logo.png"
   inkscape:export-xdpi="90.080002"
   inkscape:export-ydpi="90.080002">
  <defs
     id="defs4" />
  <sodipodi:namedview
     id="base"
     pagecolor="#ffffff"
     bordercolor="#666666"
     borderopacity="1.0"
     inkscape:pageopacity="0.0"
     inkscape:pageshadow="2"
     inkscape:zoom="0.7"
     inkscape:cx="282.92459"
     inkscape:cy="336.68866"
     inkscape:document-units="px"
     inkscape:current-layer="layer1"
     showgrid="false"
     inkscape:window-width="1366"
     inkscape:window-height="706"
     inkscape:window-x="-8"
     inkscape:window-y="-8"
     inkscape:window-maximized="1" />
  <metadata
     id="metadata7">
    <rdf:RDF>
      <cc:Work
         rdf:about="">
        <dc:format>image/svg+xml</dc:format>
        <dc:type
           rdf:resource="http://purl.org/dc/dcmitype/StillImage" />
        <dc:title />
      </cc:Work>
    </rdf:RDF>
  </metadata>
  <g
     inkscape:label="Layer 1"
     inkscape:groupmode="layer"
     id="layer1"
     transform="translate(0,-924.36218)">
    <g
       id="g3039"
       transform="matrix(0.65278694,0,0,0.65278694,113.9937,1083.3992)">
      <path
         d="m 54.877636,-85.571773 0,-127.694827 48.168654,0 c 8.47809,1.3e-4 14.95281,0.40661 19.42424,1.21947 6.27143,1.04536 11.52671,3.03423 15.76587,5.96663 4.23898,2.93263 7.65055,7.04104 10.23475,12.32526 2.584,5.28441 3.87603,11.09136 3.87616,17.42085 -1.3e-4,10.85906 -3.45526,20.04855 -10.36543,27.56849 -6.91036,7.52006 -19.3953,11.28006 -37.45483,11.28001 l -32.751195,0 0,51.914117 z m 16.898219,-66.983177 33.012515,0 c 10.91699,8e-5 18.66928,-2.03235 23.25683,-6.09728 4.58741,-4.0648 6.88116,-9.78464 6.88126,-17.15953 -1e-4,-5.34232 -1.35021,-9.91529 -4.05036,-13.71892 -2.70032,-3.80346 -6.25706,-6.31497 -10.67027,-7.53453 -2.84549,-0.75479 -8.10077,-1.13225 -15.76587,-1.13235 l -32.664105,0 z"
         style="font-size:72px;font-style:normal;font-weight:normal;text-align:center;line-height:125%;letter-spacing:0px;word-spacing:0px;text-anchor:middle;fill:#0099cc;fill-opacity:1;stroke:none;font-family:Sans"
         id="path2994"
         inkscape:connector-curvature="0" />
      <path
         d="m 257.32041,-99.247133 c 7.83925,5.40047 15.06891,9.34919 21.68894,11.84618 l -4.96492,11.75906 c -9.17512,-3.30997 -18.32105,-8.53621 -27.43785,-15.67875 -9.46542,5.28432 -19.91793,7.92649 -31.35753,7.92649 -11.5559,0 -22.03742,-2.78734 -31.44464,-8.36201 -9.40727,-5.57467 -16.65145,-13.414047 -21.7325,-23.518147 -5.0811,-10.10406 -7.62164,-21.48568 -7.62164,-34.14487 0,-12.60102 2.55505,-24.06973 7.66517,-34.40618 5.11012,-10.33626 12.3833,-18.20468 21.81964,-23.60525 9.43623,-5.40034 19.99035,-8.10057 31.66238,-8.10069 11.78803,1.2e-4 22.41474,2.80198 31.88016,8.40554 9.46522,5.60383 16.68034,13.44321 21.64541,23.51815 4.96481,10.07515 7.44729,21.44225 7.44742,34.10132 -1.3e-4,10.51063 -1.59706,19.96143 -4.79075,28.35243 -3.19394,8.39107 -8.0137,15.6933 -14.45929,21.906727 z m -37.19352,-21.601857 c 9.75558,2.72929 17.7982,6.79417 24.12788,12.19459 9.92978,-9.0588 14.8947,-22.67608 14.89483,-40.85189 -1.3e-4,-10.33629 -1.75672,-19.36609 -5.26983,-27.08942 -3.5133,-7.72315 -8.65243,-13.71882 -15.41743,-17.98704 -6.76518,-4.26799 -14.35776,-6.40203 -22.77777,-6.40215 -12.60114,1.2e-4 -23.05365,4.31177 -31.35753,12.93497 -8.30398,8.62343 -12.45595,21.50033 -12.45592,38.63075 -3e-5,16.60791 4.10841,29.35417 12.32525,38.23876 8.21679,8.88466 18.71286,13.326957 31.4882,13.326957 6.03916,0 11.72995,-1.13236 17.07242,-3.397057 -5.28439,-3.42609 -10.85906,-5.865 -16.72401,-7.31677 z"
         style="font-size:72px;font-style:normal;font-weight:normal;text-align:center;line-height:125%;letter-spacing:0px;word-spacing:0px;text-anchor:middle;fill:#cc0000;fill-opacity:1;stroke:none;font-family:Sans"
         id="path2996"
         inkscape:connector-curvature="0" />
      <path
         d="m 291.11232,-85.571773 0,-127.694827 25.43445,0 30.22518,90.41423 c 2.78727,8.42008 4.81969,14.72062 6.09731,18.9016 1.45164,-4.64553 3.71635,-11.46868 6.79411,-20.4695 l 30.57361,-88.84633 22.73421,0 0,127.694827 -16.2885,0 0,-106.876917 -37.10641,106.876917 -15.24326,0 -36.9322,-108.706107 0,108.706107 z"
         style="font-size:72px;font-style:normal;font-weight:normal;text-align:center;line-height:125%;letter-spacing:0px;word-spacing:0px;text-anchor:middle;fill:#ff8800;fill-opacity:1;stroke:none;font-family:Sans"
         id="path2998"
         inkscape:connector-curvature="0" />
      <path
         d="m 494.75074,-96.982433 c -5.807,4.93592 -11.39619,8.42009 -16.76755,10.45251 -5.37148,2.03243 -11.13487,3.04866 -17.2902,3.04866 -10.16219,0 -17.97252,-2.48247 -23.43104,-7.44742 -5.45855,-4.96493 -8.18781,-11.309027 -8.18781,-19.032277 0,-4.52938 1.03074,-8.66683 3.09221,-12.41236 2.06146,-3.74544 4.76168,-6.75054 8.10069,-9.01529 3.33898,-2.26466 7.09899,-3.97771 11.27999,-5.13915 3.07767,-0.81292 7.72323,-1.59686 13.93668,-2.3518 12.65912,-1.50977 21.97925,-3.30992 27.96048,-5.40047 0.058,-2.14853 0.087,-3.51316 0.0872,-4.09391 -8e-5,-6.38756 -1.48086,-10.88796 -4.44232,-13.50114 -4.00685,-3.54217 -9.95899,-5.31328 -17.85637,-5.31338 -7.37487,1e-4 -12.8189,1.29213 -16.33206,3.87615 -3.51323,2.58418 -6.11184,7.15714 -7.79582,13.71893 l -15.33034,-2.09051 c 1.39364,-6.56178 3.68738,-11.86062 6.88122,-15.89653 3.19379,-4.03574 7.81032,-7.14247 13.84957,-9.32016 6.0392,-2.17752 13.03658,-3.26631 20.99213,-3.26641 7.89741,1e-4 14.31408,0.92921 19.25004,2.78733 4.93584,1.85833 8.56517,4.19563 10.88803,7.0119 2.32271,2.81645 3.94865,6.37321 4.87784,10.67027 0.52256,2.67128 0.78385,7.49105 0.78395,14.45931 l 0,20.90502 c -10e-5,14.57547 0.33381,23.79399 1.0017,27.655607 0.6677,3.86163 1.98877,7.56354 3.96322,11.10578 l -16.37559,0 c -1.62602,-3.25189 -2.67125,-7.05543 -3.13576,-11.41066 z m -1.30655,-35.015897 c -5.69088,2.32283 -14.22709,4.29718 -25.60866,5.92308 -6.44573,0.92916 -11.00421,1.9744 -13.67537,3.13576 -2.67121,1.16142 -4.73267,2.85996 -6.18439,5.0956 -1.45177,2.23572 -2.17764,4.71818 -2.17761,7.44741 -3e-5,4.18103 1.58236,7.6652 4.74719,10.452507 3.16475,2.78734 7.79579,4.18101 13.89312,4.18101 6.03918,0 11.41061,-1.32107 16.1143,-3.96325 4.70356,-2.642137 8.15869,-6.256957 10.3654,-10.844467 1.68394,-3.54222 2.52594,-8.76846 2.52602,-15.67878 z"
         style="font-size:72px;font-style:normal;font-weight:normal;text-align:center;line-height:125%;letter-spacing:0px;word-spacing:0px;text-anchor:middle;fill:#669900;fill-opacity:1;stroke:none;font-family:Sans"
         id="path3000"
         inkscape:connector-curvature="0" />
      <path
         d="m 530.36512,-195.23602 0,-18.03058 15.67877,0 0,18.03058 z m 0,109.664247 0,-92.504717 15.67877,0 0,92.504717 z"
         style="font-size:72px;font-style:normal;font-weight:normal;text-align:center;line-height:125%;letter-spacing:0px;word-spacing:0px;text-anchor:middle;fill:#cc0000;fill-opacity:1;stroke:none;font-family:Sans"
         id="path3002"
         inkscape:connector-curvature="0" />
      <path
         d="m 562.14686,-85.571773 0,-127.694827 15.67878,0 0,127.694827 z"
         style="font-size:72px;font-style:normal;font-weight:normal;text-align:center;line-height:125%;letter-spacing:0px;word-spacing:0px;text-anchor:middle;fill:#ff8800;fill-opacity:1;stroke:none;font-family:Sans"
         id="path3004"
         inkscape:connector-curvature="0" />
      <path
         id="path6927-7-4-4"
         d="m -142.74862,-180.33385 0,95.049048 181.705439,0 0,-95.049048 -90.855466,45.17095 -90.849973,-45.17095 z"
         style="fill:#0099cc;fill-opacity:1;stroke:none"
         inkscape:connector-curvature="0" />
      <path
         id="path6931-0-8-8"
         d="m -142.74862,-213.55357 0,25.29057 90.849973,45.15723 90.855466,-45.15723 0,-25.29057 -181.705439,0 z"
         style="fill:#0099cc;fill-opacity:1;stroke:none"
         inkscape:connector-curvature="0" />
    </g>
    <g
       id="g3041"
       transform="matrix(0.87485327,0,0,0.87485327,-70.416443,148.92837)">
      <path
         d="m 122.38854,620.11052 0,-83.35751 31.44387,0 c 5.53438,8e-5 9.76099,0.26543 12.67989,0.79605 4.0939,0.6824 7.52448,1.98071 10.29175,3.89494 2.76715,1.91438 4.99418,4.5963 6.68111,8.04577 1.6868,3.44959 2.53022,7.24029 2.53031,11.3721 -9e-5,7.08866 -2.25555,13.08743 -6.76642,17.99635 -4.51099,4.909 -12.661,7.36348 -24.45002,7.36345 l -21.37956,0 0,33.88885 z m 11.03093,-43.72574 21.55014,0 c 7.12647,5e-5 12.18706,-1.32669 15.18176,-3.98022 2.9946,-2.65345 4.49193,-6.38729 4.49199,-11.20152 -6e-5,-3.4874 -0.8814,-6.47257 -2.64402,-8.95553 -1.76273,-2.48285 -4.08453,-4.12233 -6.96541,-4.91845 -1.8575,-0.49271 -5.28808,-0.73911 -10.29176,-0.73918 l -21.3227,0 z"
         style="font-size:72px;font-style:normal;font-weight:normal;text-align:center;line-height:125%;letter-spacing:0px;word-spacing:0px;text-anchor:middle;fill:#0099cc;fill-opacity:1;stroke:none;font-family:Sans"
         id="path2994-7"
         inkscape:connector-curvature="0" />
      <path
         d="m 254.54054,611.18343 c 5.11736,3.52535 9.83678,6.10303 14.15825,7.73303 l -3.24103,7.67616 c -5.9894,-2.16071 -11.95974,-5.57233 -17.91107,-10.23488 -6.1789,3.44953 -13.00217,5.17431 -20.46979,5.17431 -7.54354,0 -14.38574,-1.81954 -20.52665,-5.45861 -6.14094,-3.63908 -10.86985,-8.75652 -14.18669,-15.35234 -3.31688,-6.5958 -4.97531,-14.02558 -4.97531,-22.28933 0,-8.22578 1.66791,-15.7124 5.00373,-22.4599 3.33581,-6.74738 8.08365,-11.88378 14.24357,-15.4092 6.15985,-3.52527 13.04944,-5.28795 20.66879,-5.28803 7.69507,8e-5 14.63205,1.8291 20.81095,5.48703 6.17877,3.65811 10.88871,8.77555 14.12984,15.35234 3.24097,6.57693 4.8615,13.99722 4.86158,22.2609 -8e-5,6.8612 -1.04254,13.03056 -3.12734,18.50809 -2.08496,5.47758 -5.23124,10.24438 -9.43883,14.30043 z m -24.27945,-14.10141 c 6.36832,1.78164 11.61843,4.43514 15.75037,7.96047 6.48203,-5.91347 9.72306,-14.80265 9.72315,-26.66758 -9e-5,-6.7474 -1.14677,-12.64193 -3.44008,-17.68362 -2.29344,-5.04157 -5.64819,-8.95547 -10.0643,-11.74171 -4.41622,-2.78609 -9.37255,-4.17916 -14.86903,-4.17924 -8.22586,8e-5 -15.04912,2.81467 -20.46978,8.44378 -5.42073,5.62926 -8.13108,14.03514 -8.13106,25.21765 -2e-5,10.84143 2.68191,19.16202 8.04576,24.96176 5.36381,5.79979 12.21551,8.69967 20.55508,8.69967 3.94229,0 7.65716,-0.73919 11.14466,-2.21756 -3.44958,-2.2365 -7.08866,-3.82859 -10.91722,-4.77629 z"
         style="font-size:72px;font-style:normal;font-weight:normal;text-align:center;line-height:125%;letter-spacing:0px;word-spacing:0px;text-anchor:middle;fill:#cc0000;fill-opacity:1;stroke:none;font-family:Sans"
         id="path2996-4"
         inkscape:connector-curvature="0" />
    </g>
    <g
       id="g3865"
       transform="matrix(0.99902344,0,0,1,-45.410219,177.14286)">
      <rect
         y="391.56848"
         x="311.3649"
         height="128"
         width="128.12512"
         id="rect3837"
         style="color:#000000;fill:#ffffff;fill-opacity:1;fill-rule:nonzero;stroke:none;stroke-width:0.12267558;marker:none;visibility:visible;display:inline;overflow:visible;enable-background:accumulate" />
      <g
         transform="matrix(0.82608716,0,0,0.82608716,109.35789,-62.520387)"
         id="g3833">
        <path
           inkscape:connector-curvature="0"
           style="fill:#0099cc;fill-opacity:1;stroke:none"
           d="m 258.08414,581.98143 0,17.8156 63.99806,31.81042 64.00194,-31.81042 0,-17.8156 -128,0 z"
           id="path6931-0-8-8-2" />
        <path
           inkscape:connector-curvature="0"
           style="fill:#cc0000;fill-opacity:1;stroke:none"
           d="m 258.08414,605.38262 0,66.95606 128,0 0,-66.95606 -64.00194,31.82008 -63.99806,-31.82008 z"
           id="path6927-7-4-4-8" />
      </g>
    </g>
  </g>
</svg>
